<svg width="180" height="37" viewBox="0 0 180 37" fill="none" xmlns="http://www.w3.org/2000/svg">
<g filter="url(#filter0_d_6_338)">
<path d="M50.386 18.931C50.518 18.931 50.635 18.982 50.737 19.084L51.691 20.119C51.163 20.773 50.512 21.274 49.738 21.622C48.97 21.97 48.046 22.144 46.966 22.144C46 22.144 45.13 21.979 44.356 21.649C43.588 21.319 42.931 20.86 42.385 20.272C41.839 19.684 41.419 18.982 41.125 18.166C40.837 17.35 40.693 16.459 40.693 15.493C40.693 14.515 40.849 13.621 41.161 12.811C41.473 11.995 41.911 11.293 42.475 10.705C43.045 10.117 43.723 9.661 44.509 9.337C45.295 9.007 46.165 8.842 47.119 8.842C48.067 8.842 48.907 8.998 49.639 9.31C50.377 9.622 51.004 10.03 51.52 10.534L50.71 11.659C50.662 11.731 50.599 11.794 50.521 11.848C50.449 11.902 50.347 11.929 50.215 11.929C50.125 11.929 50.032 11.905 49.936 11.857C49.84 11.803 49.735 11.74 49.621 11.668C49.507 11.59 49.375 11.506 49.225 11.416C49.075 11.326 48.901 11.245 48.703 11.173C48.505 11.095 48.274 11.032 48.01 10.984C47.752 10.93 47.452 10.903 47.11 10.903C46.528 10.903 45.994 11.008 45.508 11.218C45.028 11.422 44.614 11.722 44.266 12.118C43.918 12.508 43.648 12.988 43.456 13.558C43.264 14.122 43.168 14.767 43.168 15.493C43.168 16.225 43.27 16.876 43.474 17.446C43.684 18.016 43.966 18.496 44.32 18.886C44.674 19.276 45.091 19.576 45.571 19.786C46.051 19.99 46.567 20.092 47.119 20.092C47.449 20.092 47.746 20.074 48.01 20.038C48.28 20.002 48.526 19.945 48.748 19.867C48.976 19.789 49.189 19.69 49.387 19.57C49.591 19.444 49.792 19.291 49.99 19.111C50.05 19.057 50.113 19.015 50.179 18.985C50.245 18.949 50.314 18.931 50.386 18.931ZM60.9724 20.002V22H53.3494V8.986H55.7704V20.002H60.9724ZM74.6549 15.493C74.6549 16.447 74.4959 17.332 74.1779 18.148C73.8659 18.958 73.4219 19.66 72.8459 20.254C72.2699 20.848 71.5769 21.313 70.7669 21.649C69.9569 21.979 69.0569 22.144 68.0669 22.144C67.0829 22.144 66.1859 21.979 65.3759 21.649C64.5659 21.313 63.8699 20.848 63.2879 20.254C62.7119 19.66 62.2649 18.958 61.9469 18.148C61.6289 17.332 61.4699 16.447 61.4699 15.493C61.4699 14.539 61.6289 13.657 61.9469 12.847C62.2649 12.031 62.7119 11.326 63.2879 10.732C63.8699 10.138 64.5659 9.676 65.3759 9.346C66.1859 9.01 67.0829 8.842 68.0669 8.842C68.7269 8.842 69.3479 8.92 69.9299 9.076C70.5119 9.226 71.0459 9.442 71.5319 9.724C72.0179 10 72.4529 10.339 72.8369 10.741C73.2269 11.137 73.5569 11.581 73.8269 12.073C74.0969 12.565 74.3009 13.099 74.4389 13.675C74.5829 14.251 74.6549 14.857 74.6549 15.493ZM72.1799 15.493C72.1799 14.779 72.0839 14.14 71.8919 13.576C71.6999 13.006 71.4269 12.523 71.0729 12.127C70.7189 11.731 70.2869 11.428 69.7769 11.218C69.2729 11.008 68.7029 10.903 68.0669 10.903C67.4309 10.903 66.8579 11.008 66.3479 11.218C65.8439 11.428 65.4119 11.731 65.0519 12.127C64.6979 12.523 64.4249 13.006 64.2329 13.576C64.0409 14.14 63.9449 14.779 63.9449 15.493C63.9449 16.207 64.0409 16.849 64.2329 17.419C64.4249 17.983 64.6979 18.463 65.0519 18.859C65.4119 19.249 65.8439 19.549 66.3479 19.759C66.8579 19.969 67.4309 20.074 68.0669 20.074C68.7029 20.074 69.2729 19.969 69.7769 19.759C70.2869 19.549 70.7189 19.249 71.0729 18.859C71.4269 18.463 71.6999 17.983 71.8919 17.419C72.0839 16.849 72.1799 16.207 72.1799 15.493ZM82.019 20.047C82.487 20.047 82.904 19.969 83.27 19.813C83.642 19.657 83.954 19.438 84.206 19.156C84.458 18.874 84.65 18.532 84.782 18.13C84.92 17.728 84.989 17.278 84.989 16.78V8.986H87.41V16.78C87.41 17.554 87.284 18.271 87.032 18.931C86.786 19.585 86.429 20.152 85.961 20.632C85.499 21.106 84.935 21.478 84.269 21.748C83.603 22.012 82.853 22.144 82.019 22.144C81.179 22.144 80.426 22.012 79.76 21.748C79.094 21.478 78.527 21.106 78.059 20.632C77.597 20.152 77.24 19.585 76.988 18.931C76.742 18.271 76.619 17.554 76.619 16.78V8.986H79.04V16.771C79.04 17.269 79.106 17.719 79.238 18.121C79.376 18.523 79.571 18.868 79.823 19.156C80.081 19.438 80.393 19.657 80.759 19.813C81.131 19.969 81.551 20.047 82.019 20.047ZM101.696 15.493C101.696 16.447 101.537 17.323 101.219 18.121C100.901 18.919 100.454 19.606 99.8784 20.182C99.3024 20.758 98.6094 21.205 97.7994 21.523C96.9894 21.841 96.0894 22 95.0994 22H90.1404V8.986H95.0994C96.0894 8.986 96.9894 9.148 97.7994 9.472C98.6094 9.79 99.3024 10.237 99.8784 10.813C100.454 11.383 100.901 12.067 101.219 12.865C101.537 13.663 101.696 14.539 101.696 15.493ZM99.2124 15.493C99.2124 14.779 99.1164 14.14 98.9244 13.576C98.7384 13.006 98.4654 12.526 98.1054 12.136C97.7514 11.74 97.3194 11.437 96.8094 11.227C96.3054 11.017 95.7354 10.912 95.0994 10.912H92.5704V20.074H95.0994C95.7354 20.074 96.3054 19.969 96.8094 19.759C97.3194 19.549 97.7514 19.249 98.1054 18.859C98.4654 18.463 98.7384 17.983 98.9244 17.419C99.1164 16.849 99.2124 16.207 99.2124 15.493ZM108.703 20.11C109.153 20.11 109.531 20.056 109.837 19.948C110.143 19.84 110.386 19.696 110.566 19.516C110.752 19.336 110.884 19.126 110.962 18.886C111.046 18.646 111.088 18.391 111.088 18.121C111.088 17.839 111.043 17.587 110.953 17.365C110.863 17.137 110.722 16.945 110.53 16.789C110.338 16.627 110.089 16.504 109.783 16.42C109.483 16.336 109.12 16.294 108.694 16.294H106.255V20.11H108.703ZM106.255 10.858V14.62H108.181C109.009 14.62 109.633 14.47 110.053 14.17C110.479 13.87 110.692 13.393 110.692 12.739C110.692 12.061 110.5 11.578 110.116 11.29C109.732 11.002 109.132 10.858 108.316 10.858H106.255ZM108.316 8.986C109.168 8.986 109.897 9.067 110.503 9.229C111.109 9.391 111.604 9.622 111.988 9.922C112.378 10.222 112.663 10.585 112.843 11.011C113.023 11.437 113.113 11.917 113.113 12.451C113.113 12.757 113.068 13.051 112.978 13.333C112.888 13.609 112.747 13.87 112.555 14.116C112.369 14.356 112.129 14.575 111.835 14.773C111.547 14.971 111.202 15.139 110.8 15.277C112.588 15.679 113.482 16.645 113.482 18.175C113.482 18.727 113.377 19.237 113.167 19.705C112.957 20.173 112.651 20.578 112.249 20.92C111.847 21.256 111.352 21.52 110.764 21.712C110.176 21.904 109.504 22 108.748 22H103.834V8.986H108.316ZM120.919 20.047C121.387 20.047 121.804 19.969 122.17 19.813C122.542 19.657 122.854 19.438 123.106 19.156C123.358 18.874 123.55 18.532 123.682 18.13C123.82 17.728 123.889 17.278 123.889 16.78V8.986H126.31V16.78C126.31 17.554 126.184 18.271 125.932 18.931C125.686 19.585 125.329 20.152 124.861 20.632C124.399 21.106 123.835 21.478 123.169 21.748C122.503 22.012 121.753 22.144 120.919 22.144C120.079 22.144 119.326 22.012 118.66 21.748C117.994 21.478 117.427 21.106 116.959 20.632C116.497 20.152 116.14 19.585 115.888 18.931C115.642 18.271 115.519 17.554 115.519 16.78V8.986H117.94V16.771C117.94 17.269 118.006 17.719 118.138 18.121C118.276 18.523 118.471 18.868 118.723 19.156C118.981 19.438 119.293 19.657 119.659 19.813C120.031 19.969 120.451 20.047 120.919 20.047ZM140.597 15.493C140.597 16.447 140.438 17.323 140.12 18.121C139.802 18.919 139.355 19.606 138.779 20.182C138.203 20.758 137.51 21.205 136.7 21.523C135.89 21.841 134.99 22 134 22H129.041V8.986H134C134.99 8.986 135.89 9.148 136.7 9.472C137.51 9.79 138.203 10.237 138.779 10.813C139.355 11.383 139.802 12.067 140.12 12.865C140.438 13.663 140.597 14.539 140.597 15.493ZM138.113 15.493C138.113 14.779 138.017 14.14 137.825 13.576C137.639 13.006 137.366 12.526 137.006 12.136C136.652 11.74 136.22 11.437 135.71 11.227C135.206 11.017 134.636 10.912 134 10.912H131.471V20.074H134C134.636 20.074 135.206 19.969 135.71 19.759C136.22 19.549 136.652 19.249 137.006 18.859C137.366 18.463 137.639 17.983 137.825 17.419C138.017 16.849 138.113 16.207 138.113 15.493ZM153.462 15.475V20.74C152.802 21.226 152.097 21.583 151.347 21.811C150.603 22.033 149.805 22.144 148.953 22.144C147.891 22.144 146.928 21.979 146.064 21.649C145.206 21.319 144.471 20.86 143.859 20.272C143.253 19.684 142.785 18.982 142.455 18.166C142.125 17.35 141.96 16.459 141.96 15.493C141.96 14.515 142.119 13.618 142.437 12.802C142.755 11.986 143.205 11.284 143.787 10.696C144.375 10.108 145.086 9.652 145.92 9.328C146.754 9.004 147.69 8.842 148.728 8.842C149.256 8.842 149.748 8.884 150.204 8.968C150.666 9.052 151.092 9.169 151.482 9.319C151.878 9.463 152.238 9.64 152.562 9.85C152.886 10.06 153.183 10.291 153.453 10.543L152.76 11.641C152.652 11.815 152.511 11.923 152.337 11.965C152.163 12.001 151.974 11.956 151.77 11.83C151.572 11.716 151.374 11.602 151.176 11.488C150.978 11.374 150.756 11.275 150.51 11.191C150.27 11.107 149.997 11.038 149.691 10.984C149.391 10.93 149.043 10.903 148.647 10.903C148.005 10.903 147.423 11.011 146.901 11.227C146.385 11.443 145.944 11.752 145.578 12.154C145.212 12.556 144.93 13.039 144.732 13.603C144.534 14.167 144.435 14.797 144.435 15.493C144.435 16.237 144.54 16.903 144.75 17.491C144.966 18.073 145.266 18.568 145.65 18.976C146.04 19.378 146.508 19.687 147.054 19.903C147.6 20.113 148.209 20.218 148.881 20.218C149.361 20.218 149.79 20.167 150.168 20.065C150.546 19.963 150.915 19.825 151.275 19.651V17.293H149.637C149.481 17.293 149.358 17.251 149.268 17.167C149.184 17.077 149.142 16.969 149.142 16.843V15.475H153.462ZM158.225 10.912V14.521H162.779V16.384H158.225V20.065H164.003V22H155.795V8.986H164.003V10.912H158.225ZM175.238 10.975H171.314V22H168.893V10.975H164.969V8.986H175.238V10.975Z" fill="white"/>
<path d="M25.605 13.05C25.605 12.615 25.75 12.18 25.75 11.6C25.75 8.41002 23.14 5.80002 19.95 5.80002C17.63 5.80002 15.745 7.10502 14.73 8.99002C14.44 8.84502 13.86 8.70002 13.425 8.70002C11.395 8.70002 9.80001 10.295 9.80001 12.325C9.80001 12.615 9.80001 12.905 9.94501 13.05C7.33501 13.485 5.45001 15.515 5.45001 18.125C5.45001 20.88 7.77001 23.2 10.525 23.2H25.025C27.78 23.2 30.1 20.88 30.1 18.125C30.1 15.515 28.215 13.34 25.605 13.05Z" fill="white"/>
</g>
<defs>
<filter id="filter0_d_6_338" x="0" y="0" width="179.238" height="37" filterUnits="userSpaceOnUse" color-interpolation-filters="sRGB">
<feFlood flood-opacity="0" result="BackgroundImageFix"/>
<feColorMatrix in="SourceAlpha" type="matrix" values="0 0 0 0 0 0 0 0 0 0 0 0 0 0 0 0 0 0 127 0" result="hardAlpha"/>
<feOffset dy="4"/>
<feGaussianBlur stdDeviation="2"/>
<feComposite in2="hardAlpha" operator="out"/>
<feColorMatrix type="matrix" values="0 0 0 0 0 0 0 0 0 0 0 0 0 0 0 0 0 0 0.25 0"/>
<feBlend mode="normal" in2="BackgroundImageFix" result="effect1_dropShadow_6_338"/>
<feBlend mode="normal" in="SourceGraphic" in2="effect1_dropShadow_6_338" result="shape"/>
</filter>
</defs>
</svg>
